:SAMPLES-PER-SECOND 30
:FULLY-SPECIFIED
:DEGREES
651
root  20.5477 38.2732 -1.063 -133.649 -83.9916 123.906
RightUpLeg  -3.27307 4.15822 -9.23453
RightLeg  65.0166 2.35143 4.93464
RightFoot  1.64378 -1.34831 11.9321
RightToes  2.96859e-009 0 -3.6325e-017
Spine  5.20221 1.75427 -2.72106
Spine1  13.9728 1.93945 -4.74705
HEad  0.21332 -6.01441 -3.98499
LeftShoulder1  -0.00313297 3.5135 -25.7766
LeftArm  -15.4752 4.91387 -34.9978
LeftForeArm  81.3722 -78.3156 -106.697
LeftHand  -0.049383 5.86486 -2.61447
RightShoulder  -0.189303 -4.12497 22.8969
RightArm  -12.4715 -9.34115 39.3868
RightForeArm  102.834 72.4777 139.142
RightHand  -0.0547128 -4.13314 -3.26504
LeftUpLeg  -8.31339 6.33233 -7.36058
LeftLeg  21.842 5.57734 2.28602
LeftFoot  -4.39124 -0.474666 8.24052
LeftToes  3.24686e-010 -7.02549e-012 1.39809e-011
652
root  19.5848 38.4899 -0.956472 -134.645 -84.6217 125.031
RightUpLeg  -8.81468 4.46568 -8.51558
RightLeg  67.8798 1.71606 3.97933
RightFoot  1.37356 -1.09308 9.86558
RightToes  2.96859e-009 0 -3.6325e-017
Spine  5.48178 1.27208 -2.60621
Spine1  13.6409 1.36098 -4.41271
HEad  0.860377 -5.94013 -3.67698
LeftShoulder1  0.0701156 3.28062 -25.2171
LeftArm  -15.9892 4.09116 -35.4113
LeftForeArm  79.9331 -78.4178 -105.039
LeftHand  -0.050746 6.07897 -2.74697
RightShoulder  -0.199161 -4.15313 23.1249
RightArm  -12.6079 -8.2282 39.5256
RightForeArm  102.058 72.8109 138.161
RightHand  -0.0710256 -3.29363 -3.03837
LeftUpLeg  -6.15507 6.26086 -6.7703
LeftLeg  20.7145 5.52291 1.86788
LeftFoot  -5.63532 -0.377859 8.25499
LeftToes  3.24686e-010 -7.02549e-012 1.39809e-011
653
root  18.617 38.6804 -0.843663 -131.045 -85.5508 121.672
RightUpLeg  -13.5689 4.15319 -7.82934
RightLeg  67.4418 1.38864 3.01907
RightFoot  0.34819 -0.834113 8.16937
RightToes  2.96859e-009 0 -3.6325e-017
Spine  5.61059 0.654657 -2.67876
Spine1  13.358 0.542801 -3.65832
HEad  1.59899 -5.79062 -3.65296
LeftShoulder1  0.130584 3.08501 -24.9118
LeftArm  -16.5495 3.16845 -35.8381
LeftForeArm  78.7466 -78.5361 -103.2
LeftHand  -0.0432948 5.70308 -3.14518
RightShoulder  -0.191624 -4.13168 22.9363
RightArm  -13.1293 -7.68236 39.8573
RightForeArm  102.274 72.8774 138.011
RightHand  -0.0535464 -3.94231 -2.69715
LeftUpLeg  -4.07586 6.22527 -6.15725
LeftLeg  19.5268 4.81993 1.24273
LeftFoot  -6.83084 -0.288405 8.34652
LeftToes  3.24686e-010 -7.02549e-012 1.39809e-011
654
root  17.6491 38.8315 -0.719216 -122.762 -86.5989 113.353
RightUpLeg  -16.8107 3.5735 -7.28037
RightLeg  63.6027 1.28375 2.27178
RightFoot  -1.80581 -0.708163 8.33913
RightToes  2.96859e-009 0 -3.6325e-017
Spine  6.45083 -0.120085 -2.5296
Spine1  12.4113 -0.393423 -3.02592
HEad  1.81153 -5.28896 -2.9808
LeftShoulder1  0.120715 3.11876 -25.1132
LeftArm  -16.6564 2.41947 -35.8538
LeftForeArm  78.5119 -78.5676 -102.721
LeftHand  -0.0522225 5.89128 -3.6641
RightShoulder  -0.208245 -4.18871 22.9153
RightArm  -13.5077 -7.28431 39.8985
RightForeArm  102.996 72.7461 138.464
RightHand  -0.0440831 -4.29118 -2.34508
LeftUpLeg  -1.79512 6.28043 -5.56496
LeftLeg  18.4434 3.81296 0.69707
LeftFoot  -8.0646 -0.187202 8.23541
LeftToes  3.24686e-010 -7.02549e-012 1.39809e-011
655
root  16.6374 38.9349 -0.620542 -119.675 -87.2083 110.203
RightUpLeg  -18.8708 3.49517 -6.62762
RightLeg  56.7407 1.42186 1.89292
RightFoot  -3.58428 -0.602573 8.50074
RightToes  2.96859e-009 0 -3.6325e-017
Spine  6.58989 -0.512395 -2.07907
Spine1  12.3419 -0.733465 -2.83862
HEad  2.02438 -5.26397 -2.40252
LeftShoulder1  0.195575 2.8696 -24.5791
LeftArm  -16.8893 2.11954 -36.6176
LeftForeArm  78.6445 -78.5681 -102.78
LeftHand  -0.055771 5.93622 -3.86829
RightShoulder  -0.256501 -4.34314 23.276
RightArm  -13.9796 -7.15363 39.6107
RightForeArm  103.036 72.4542 139.231
RightHand  -0.0579486 -3.72455 -2.75926
LeftUpLeg  0.542581 6.6237 -4.91201
LeftLeg  17.431 3.1277 0.266344
LeftFoot  -9.36146 -0.0865253 8.26253
LeftToes  3.24686e-010 -7.02549e-012 1.39809e-011
656
root  15.5766 38.983 -0.545466 -115.658 -87.3808 106.271
RightUpLeg  -19.8857 3.2641 -6.37332
RightLeg  47.2255 2.04823 2.05316
RightFoot  -4.13848 -0.558842 8.42043
RightToes  2.96859e-009 0 -3.6325e-017
Spine  6.13204 -0.811896 -2.17424
Spine1  12.8433 -1.04498 -2.31673
HEad  1.96849 -5.15237 -2.12917
LeftShoulder1  0.204364 2.82957 -24.0515
LeftArm  -17.1308 1.79892 -37.5755
LeftForeArm  78.2964 -78.6111 -102.096
LeftHand  -0.0361138 5.51032 -3.14921
RightShoulder  -0.278249 -4.41257 23.3793
RightArm  -14.6049 -6.8458 39.6434
RightForeArm  104.077 72.3484 139.638
RightHand  -0.0447947 -4.06069 -2.17868
LeftUpLeg  2.77957 6.9747 -4.56683
LeftLeg  16.4839 2.55045 -0.168962
LeftFoot  -10.6838 0.016861 8.2061
LeftToes  3.24686e-010 -7.02549e-012 1.39809e-011
657
root  14.4729 38.9763 -0.464771 -106.708 -87.4039 97.306
RightUpLeg  -19.4486 2.60842 -6.33086
RightLeg  35.2846 2.82638 1.91989
RightFoot  -4.09684 -0.606903 9.12909
RightToes  2.96859e-009 0 -3.6325e-017
Spine  5.98849 -0.994838 -2.67891
Spine1  12.863 -1.4908 -1.03448
HEad  2.0658 -4.89948 -2.59329
LeftShoulder1  0.181366 2.91997 -24.8335
LeftArm  -16.9119 1.22721 -37.6297
LeftForeArm  77.0086 -78.692 -100.415
LeftHand  -0.0229575 5.16549 -3.92372
RightShoulder  -0.234475 -4.28098 22.7879
RightArm  -15.5452 -7.44889 40.0385
RightForeArm  105.506 71.9774 140.739
RightHand  -0.0450508 -3.61933 -1.68028
LeftUpLeg  5.06313 7.19266 -4.47009
LeftLeg  15.76 1.84424 -0.472689
LeftFoot  -12.1282 0.128821 8.03792
LeftToes  3.24686e-010 -7.02549e-012 1.39809e-011
658
root  13.333 38.9488 -0.393109 -99.8975 -87.2887 90.798
RightUpLeg  -18.2115 1.57906 -6.22581
RightLeg  21.8814 3.93493 1.49525
RightFoot  -3.74553 -0.612954 8.82575
RightToes  2.96859e-009 0 -3.6325e-017
Spine  5.1166 -1.39449 -1.61813
Spine1  13.307 -1.36865 -2.15625
HEad  2.19629 -4.90934 -1.81836
LeftShoulder1  0.21334 2.80329 -24.1791
LeftArm  -16.8453 1.02563 -38.1072
LeftForeArm  75.7814 -78.7145 -99.4621
LeftHand  -0.0309028 5.56285 -3.68263
RightShoulder  -0.295999 -4.46915 23.5166
RightArm  -15.8722 -7.77157 40.057
RightForeArm  105.818 71.6242 141.599
RightHand  -0.0608297 -3.57932 -2.77883
LeftUpLeg  7.20334 7.29425 -4.47529
LeftLeg  14.7368 1.46325 -0.714296
LeftFoot  -13.3998 0.222648 7.93613
LeftToes  3.24686e-010 -7.02549e-012 1.39809e-011
659
root  12.1456 38.8271 -0.333244 -98.7589 -86.5284 90.007
RightUpLeg  -16.704 -1.06555 -5.96937
RightLeg  8.84164 7.01316 0.366864
RightFoot  -4.40795 -0.566187 8.831
RightToes  2.96859e-009 0 -3.6325e-017
Spine  4.34981 -1.38135 -2.01323
Spine1  13.6524 -1.37008 -1.64542
HEad  1.7487 -4.53721 -1.7629
LeftShoulder1  0.167213 2.96328 -24.6465
LeftArm  -16.6457 0.825414 -38.194
LeftForeArm  75.2872 -78.7229 -99.1286
LeftHand  -0.0364464 5.70724 -3.11915
RightShoulder  -0.290866 -4.46017 23.2448
RightArm  -16.4164 -8.44141 40.3287
RightForeArm  107.843 71.2108 142.77
RightHand  -0.0472772 -3.55999 -1.85133
LeftUpLeg  9.40895 7.26986 -5.10541
LeftLeg  13.675 1.47742 -0.973193
LeftFoot  -14.8632 0.321495 7.51051
LeftToes  3.24686e-010 -7.02549e-012 1.39809e-011
660
root  10.9289 38.6774 -0.309178 -93.2598 -86.0627 84.4167
RightUpLeg  -15.1607 -5.82161 -4.67818
RightLeg  -1.1163 12.0119 -1.36975
RightFoot  -5.20048 -0.556382 9.73033
RightToes  2.96859e-009 0 -3.6325e-017
Spine  4.058 -1.48919 -1.64087
Spine1  14.0561 -1.35734 -1.76124
HEad  1.38051 -4.46167 -1.90381
LeftShoulder1  0.139068 3.05421 -24.7493
LeftArm  -16.4535 0.556474 -38.3205
LeftForeArm  74.305 -78.7408 -98.2054
LeftHand  -0.0309465 5.64982 -3.60191
RightShoulder  -0.296201 -4.47575 23.3027
RightArm  -16.6322 -9.11812 40.122
RightForeArm  108.682 70.7926 143.75
RightHand  -0.0463022 -3.6749 -1.86996
LeftUpLeg  11.9541 7.50953 -5.17184
LeftLeg  12.9926 0.903504 -1.2934
LeftFoot  -16.2829 0.420806 7.47191
LeftToes  3.24686e-010 -7.02549e-012 1.39809e-011
